<svg xmlns="http://www.w3.org/2000/svg" width="262" height="60.94" viewBox="0 0 262 60.94"><g transform="translate(-195.627 -321.086)"><g transform="translate(195.627 321.086)"><path d="M239.244,331.763c-.318-.266-9.7,8.449-19.753,20.469-1.095,1.309-2.152,2.605-3.166,3.874a4.882,4.882,0,0,1,2.992,2.531q1.614-1.84,3.269-3.816c10.055-12.019,16.977-22.79,16.658-23.057Zm-43.609,51.709c.238.2,7.3-6.31,14.87-15.3q1.238-1.468,2.386-2.9a3.66,3.66,0,0,1-2.238-1.906q-1.214,1.375-2.462,2.853c-7.573,8.988-12.794,17.047-12.556,17.248Z" transform="translate(-195.627 -322.537)" fill="#e31f27" fill-rule="evenodd"/><path d="M249.756,324.972a.712.712,0,1,1-.646.772.711.711,0,0,1,.646-.772Zm-.1,4.128a9.237,9.237,0,0,0,4.008-8.015,9.2,9.2,0,0,0-6.838,4.673c-.087.159-.171.32-.249.483a1.155,1.155,0,0,1,.693.288,2.266,2.266,0,0,0-.53-.079,4.2,4.2,0,0,0-.664.031,3.136,3.136,0,0,0-2.405,1.867,3.138,3.138,0,0,1,4.609,3.855,3.173,3.173,0,0,0,.683-.609A3.133,3.133,0,0,0,249.656,329.1Z" transform="translate(-202.16 -321.086)" fill="#e31f27" fill-rule="evenodd"/></g><g transform="translate(200.145 356.074)"><path d="M204.106,368.079a3.25,3.25,0,1,0-3.25-3.25A3.256,3.256,0,0,0,204.106,368.079Z" transform="translate(-200.856 -361.58)" fill="#0e7951" fill-rule="evenodd"/><path d="M217.473,368.079a3.25,3.25,0,1,0-3.25-3.25A3.256,3.256,0,0,0,217.473,368.079Z" transform="translate(-202.674 -361.58)" fill="#fdd35d" fill-rule="evenodd"/><path d="M230.239,368.079a3.25,3.25,0,1,0-3.25-3.25A3.256,3.256,0,0,0,230.239,368.079Z" transform="translate(-204.409 -361.58)" fill="#1d2857" fill-rule="evenodd"/></g><g transform="translate(327.434 367.451)"><path d="M348.177,381.39h4.54v-1.228h-3.106v-5.284h-1.434Z" transform="translate(-348.177 -374.766)" fill="#0e7951" fill-rule="evenodd"/><path d="M356.658,380.18v-1.507h2.876V377.5h-2.876v-1.414h3.257v-1.209h-4.681v6.512h4.8V380.18Z" transform="translate(-349.136 -374.766)" fill="#0e7951" fill-rule="evenodd"/><path d="M367.475,381.39h1.5l-2.77-6.513h-1.415l-2.761,6.513H363.5l.549-1.4h2.876l.549,1.4Zm-2.964-2.54.982-2.494.982,2.494Z" transform="translate(-350.061 -374.766)" fill="#0e7951" fill-rule="evenodd"/><path d="M377.178,381.39l-1.389-2.094a2.123,2.123,0,0,0,1.274-2.056c0-1.46-1.035-2.363-2.691-2.363h-2.681v6.513h1.433v-1.814h1.318l1.195,1.814Zm-1.566-4.15c0,.708-.442,1.135-1.319,1.135h-1.168v-2.27h1.168C375.169,376.106,375.611,376.524,375.611,377.24Z" transform="translate(-351.374 -374.766)" fill="#0e7951" fill-rule="evenodd"/><path d="M384.355,374.877v3.954l-3.08-3.954h-1.186v6.512H381.5v-3.954l3.089,3.954h1.177v-6.512Z" transform="translate(-352.516 -374.766)" fill="#0e7951" fill-rule="evenodd"/><path d="M389.591,382.217a.868.868,0,0,0,.859-.912.859.859,0,1,0-1.718,0A.868.868,0,0,0,389.591,382.217Z" transform="translate(-353.691 -375.518)" fill="#0e7951" fill-rule="evenodd"/><path d="M397.72,381.484a3.116,3.116,0,0,0,2.558-1.163l-.92-.893a2.08,2.08,0,1,1,0-2.633l.92-.893a3.13,3.13,0,0,0-2.549-1.153,3.368,3.368,0,0,0-.009,6.736Z" transform="translate(-354.457 -374.748)" fill="#0e7951" fill-rule="evenodd"/><path d="M405.98,381.484a3.368,3.368,0,1,0-3.39-3.368,3.282,3.282,0,0,0,3.39,3.368Zm0-1.284a2.09,2.09,0,1,1,1.938-2.084A1.941,1.941,0,0,1,405.98,380.2Z" transform="translate(-355.576 -374.748)" fill="#0e7951" fill-rule="evenodd"/><path d="M416.821,374.877v3.954l-3.08-3.954h-1.186v6.512h1.416v-3.954l3.089,3.954h1.177v-6.512Z" transform="translate(-356.931 -374.766)" fill="#0e7951" fill-rule="evenodd"/><path d="M425.966,374.877v3.954l-3.08-3.954H421.7v6.512h1.416v-3.954l3.089,3.954h1.177v-6.512Z" transform="translate(-358.174 -374.766)" fill="#0e7951" fill-rule="evenodd"/><path d="M432.271,380.18v-1.507h2.876V377.5h-2.876v-1.414h3.257v-1.209h-4.681v6.512h4.8V380.18Z" transform="translate(-359.418 -374.766)" fill="#0e7951" fill-rule="evenodd"/><path d="M441.472,381.484a3.117,3.117,0,0,0,2.558-1.163l-.92-.893a2.08,2.08,0,1,1,0-2.633l.92-.893a3.132,3.132,0,0,0-2.549-1.153,3.368,3.368,0,0,0-.009,6.736Z" transform="translate(-360.407 -374.748)" fill="#0e7951" fill-rule="evenodd"/><path d="M448.047,381.39h1.434v-5.284h1.982v-1.228h-5.4v1.228h1.982Z" transform="translate(-361.487 -374.766)" fill="#0e7951" fill-rule="evenodd"/><path d="M454.092,382.217a.868.868,0,0,0,.859-.912.859.859,0,1,0-1.717,0A.867.867,0,0,0,454.092,382.217Z" transform="translate(-362.462 -375.518)" fill="#0e7951" fill-rule="evenodd"/><path d="M463.866,378a1.576,1.576,0,0,0,.823-1.433c0-1.014-.8-1.694-2.345-1.694h-3.027v6.513h3.2c1.628,0,2.478-.651,2.478-1.777a1.6,1.6,0,0,0-1.134-1.61Zm-1.7-1.991c.7,0,1.08.251,1.08.763s-.381.772-1.08.772h-1.425v-1.535Zm.248,4.242h-1.673v-1.61h1.673c.743,0,1.141.261,1.141.81S463.159,380.255,462.416,380.255Z" transform="translate(-363.289 -374.766)" fill="#0e7951" fill-rule="evenodd"/><path d="M470.766,381.5c1.762,0,2.805-1.061,2.805-2.978v-3.647h-1.416v3.592c0,1.237-.5,1.749-1.38,1.749s-1.381-.511-1.381-1.749v-3.592h-1.434v3.647C467.961,380.44,469.006,381.5,470.766,381.5Z" transform="translate(-364.464 -374.766)" fill="#0e7951" fill-rule="evenodd"/><rect width="1.434" height="6.512" transform="translate(111.275 0.112)" fill="#0e7951"/><path d="M481.193,381.39h4.54v-1.228h-3.106v-5.284h-1.434Z" transform="translate(-366.264 -374.766)" fill="#0e7951" fill-rule="evenodd"/><path d="M488.249,381.39h2.814a3.26,3.26,0,1,0,0-6.513h-2.814v6.513Zm1.433-1.237v-4.038h1.31a2.019,2.019,0,1,1,0,4.038Z" transform="translate(-367.223 -374.766)" fill="#0e7951" fill-rule="evenodd"/><path d="M497.731,382.217a.867.867,0,0,0,.858-.912.859.859,0,1,0-1.717,0A.868.868,0,0,0,497.731,382.217Z" transform="translate(-368.396 -375.518)" fill="#0e7951" fill-rule="evenodd"/></g><g transform="translate(242.789 347.175)"><path d="M250.211,362.693l2.968-.321a4.077,4.077,0,0,0,1.08,2.384,3.086,3.086,0,0,0,2.2.762,3.179,3.179,0,0,0,2.207-.677,2.088,2.088,0,0,0,.744-1.585,1.6,1.6,0,0,0-.313-1,2.457,2.457,0,0,0-1.091-.708c-.354-.137-1.16-.375-2.424-.72a7.9,7.9,0,0,1-3.421-1.634,4.476,4.476,0,0,1-1.382-3.318,4.561,4.561,0,0,1,.649-2.357,4.18,4.18,0,0,1,1.877-1.668,6.92,6.92,0,0,1,2.958-.575,5.917,5.917,0,0,1,4.254,1.37,5.063,5.063,0,0,1,1.5,3.658l-3.052.115a2.938,2.938,0,0,0-.831-1.829,2.836,2.836,0,0,0-1.912-.559,3.2,3.2,0,0,0-2.059.6,1.248,1.248,0,0,0-.481,1.026,1.3,1.3,0,0,0,.453,1,7.49,7.49,0,0,0,2.789,1.106,13.769,13.769,0,0,1,3.273,1.183,4.4,4.4,0,0,1,1.662,1.672,5.256,5.256,0,0,1,.6,2.618,5.158,5.158,0,0,1-.72,2.648,4.414,4.414,0,0,1-2.034,1.833,7.88,7.88,0,0,1-3.281.6,6.164,6.164,0,0,1-4.388-1.439A6.475,6.475,0,0,1,250.211,362.693Z" transform="translate(-250.211 -351.281)" fill="#221f1f" fill-rule="evenodd"/><path d="M267.385,368.067v-16.44h4.88a16.269,16.269,0,0,1,3.612.245,3.971,3.971,0,0,1,2.169,1.611,5.439,5.439,0,0,1,.874,3.2,5.808,5.808,0,0,1-.5,2.545,4.451,4.451,0,0,1-1.277,1.622,4.254,4.254,0,0,1-1.575.778,15.928,15.928,0,0,1-3.15.237h-1.979v6.2Zm3.052-13.662v4.685h1.66a7.141,7.141,0,0,0,2.4-.261,2,2,0,0,0,.947-.811,2.372,2.372,0,0,0,.344-1.281,2.27,2.27,0,0,0-.48-1.485,2.067,2.067,0,0,0-1.221-.734,13.492,13.492,0,0,0-2.183-.111Z" transform="translate(-252.546 -351.328)" fill="#221f1f" fill-rule="evenodd"/><path d="M295.161,368.067h-3.287l-1.3-3.742h-6.045l-1.252,3.742h-3.228l5.852-16.44h3.224l6.037,16.44Zm-5.577-6.521-2.094-6.084-2.035,6.084Z" transform="translate(-254.268 -351.328)" fill="#221f1f" fill-rule="evenodd"/><path d="M308.973,361.959l2.947.987a7.425,7.425,0,0,1-2.259,4.034,6.045,6.045,0,0,1-4,1.317,6.237,6.237,0,0,1-4.939-2.24,9.06,9.06,0,0,1-1.933-6.122,9.532,9.532,0,0,1,1.943-6.38,6.4,6.4,0,0,1,5.111-2.273,5.969,5.969,0,0,1,4.494,1.788,6.658,6.658,0,0,1,1.544,3.034l-3.01.781a3.562,3.562,0,0,0-1.116-2.017,3.035,3.035,0,0,0-2.062-.739,3.309,3.309,0,0,0-2.723,1.313,6.828,6.828,0,0,0-1.045,4.248,7.363,7.363,0,0,0,1.028,4.436,3.233,3.233,0,0,0,2.677,1.324,2.9,2.9,0,0,0,2.091-.842A5.038,5.038,0,0,0,308.973,361.959Z" transform="translate(-256.816 -351.281)" fill="#221f1f" fill-rule="evenodd"/><path d="M317.011,368.067v-16.44h11.156V354.4h-8.1v3.651H327.6v2.778h-7.535v4.454h8.4v2.778Z" transform="translate(-259.294 -351.328)" fill="#221f1f" fill-rule="evenodd"/><path d="M333.26,368.067v-16.44h3.052V358.1h5.936v-6.475H345.3v16.44h-3.052V360.88h-5.936v7.187Z" transform="translate(-261.504 -351.328)" fill="#221f1f" fill-rule="evenodd"/><path d="M350.852,351.627H353.9v8.909a20.467,20.467,0,0,0,.112,2.748,2.708,2.708,0,0,0,.919,1.623,3,3,0,0,0,1.992.613,2.833,2.833,0,0,0,1.933-.578,2.322,2.322,0,0,0,.782-1.42,20.358,20.358,0,0,0,.134-2.794v-9.1h3.052v8.645a24.2,24.2,0,0,1-.245,4.187,4.84,4.84,0,0,1-.909,2.067,4.576,4.576,0,0,1-1.764,1.339,7.1,7.1,0,0,1-2.891.5,7.643,7.643,0,0,1-3.262-.543A4.733,4.733,0,0,1,352,366.406a4.684,4.684,0,0,1-.848-1.826,21.611,21.611,0,0,1-.3-4.175Z" transform="translate(-263.896 -351.328)" fill="#221f1f" fill-rule="evenodd"/><path d="M368.444,351.627h6.027a16.158,16.158,0,0,1,2.67.161,3.8,3.8,0,0,1,1.575.677,4.121,4.121,0,0,1,1.158,1.37,3.98,3.98,0,0,1,.463,1.922,4.081,4.081,0,0,1-.569,2.113,3.633,3.633,0,0,1-1.544,1.443,3.973,3.973,0,0,1,2.113,1.5,4.232,4.232,0,0,1,.736,2.484,5.262,5.262,0,0,1-.477,2.185,4.331,4.331,0,0,1-1.308,1.7,4.114,4.114,0,0,1-2.042.781q-.758.086-3.669.111h-5.132v-16.44Zm3.052,2.732v3.789h1.992q1.774,0,2.207-.057a1.927,1.927,0,0,0,1.228-.586,1.814,1.814,0,0,0,.446-1.278,1.9,1.9,0,0,0-.386-1.236,1.675,1.675,0,0,0-1.143-.574q-.452-.058-2.6-.058Zm0,6.521v4.409h2.82a13.03,13.03,0,0,0,2.087-.1,1.856,1.856,0,0,0,1.105-.658,2.156,2.156,0,0,0,.429-1.4,2.274,2.274,0,0,0-.33-1.259,1.876,1.876,0,0,0-.95-.754,9.525,9.525,0,0,0-2.7-.238Z" transform="translate(-266.288 -351.328)" fill="#221f1f" fill-rule="evenodd"/><path d="M385.111,362.693l2.967-.321a4.077,4.077,0,0,0,1.081,2.384,3.085,3.085,0,0,0,2.2.762,3.177,3.177,0,0,0,2.206-.677,2.085,2.085,0,0,0,.744-1.585,1.609,1.609,0,0,0-.312-1,2.456,2.456,0,0,0-1.091-.708c-.354-.137-1.161-.375-2.424-.72a7.89,7.89,0,0,1-3.421-1.634,4.473,4.473,0,0,1-1.382-3.318,4.569,4.569,0,0,1,.649-2.357,4.182,4.182,0,0,1,1.877-1.668,6.916,6.916,0,0,1,2.957-.575,5.92,5.92,0,0,1,4.255,1.37,5.067,5.067,0,0,1,1.5,3.658l-3.053.115a2.933,2.933,0,0,0-.831-1.829,2.834,2.834,0,0,0-1.911-.559,3.207,3.207,0,0,0-2.06.6,1.25,1.25,0,0,0-.48,1.026,1.3,1.3,0,0,0,.453,1,7.476,7.476,0,0,0,2.789,1.106,13.768,13.768,0,0,1,3.273,1.183,4.4,4.4,0,0,1,1.662,1.672,5.256,5.256,0,0,1,.6,2.618,5.165,5.165,0,0,1-.719,2.648,4.416,4.416,0,0,1-2.035,1.833,7.879,7.879,0,0,1-3.28.6,6.161,6.161,0,0,1-4.388-1.439A6.471,6.471,0,0,1,385.111,362.693Z" transform="translate(-268.554 -351.281)" fill="#221f1f" fill-rule="evenodd"/><path d="M421.482,368.067h-3.287l-1.3-3.742h-6.044l-1.253,3.742h-3.227l5.851-16.44h3.224l6.038,16.44Zm-5.578-6.521-2.094-6.084-2.035,6.084Z" transform="translate(-271.445 -351.328)" fill="#221f1f" fill-rule="evenodd"/><path d="M425.74,368.067v-16.44H436.1V354.4h-7.3v3.9h6.314v2.778h-6.314v6.98Z" transform="translate(-274.079 -351.328)" fill="#221f1f" fill-rule="evenodd"/><path d="M440.62,368.067v-16.44h6.409a10.1,10.1,0,0,1,3.511.444,3.529,3.529,0,0,1,1.753,1.573,5.066,5.066,0,0,1,.66,2.59,4.288,4.288,0,0,1-3.964,4.578,7.1,7.1,0,0,1,1.621,1.377,18.7,18.7,0,0,1,1.725,2.672l1.839,3.206h-3.638l-2.183-3.589a22.6,22.6,0,0,0-1.61-2.411,2.359,2.359,0,0,0-.916-.682,4.717,4.717,0,0,0-1.541-.183h-.617v6.865Zm3.052-9.483h2.252a10.689,10.689,0,0,0,2.733-.2,1.656,1.656,0,0,0,.853-.7,2.281,2.281,0,0,0,.308-1.236,2.1,2.1,0,0,0-.407-1.343,1.807,1.807,0,0,0-1.143-.643q-.375-.058-2.221-.058h-2.375Z" transform="translate(-276.102 -351.328)" fill="#221f1f" fill-rule="evenodd"/><rect width="3.052" height="16.44" transform="translate(179.613 0.299)" fill="#221f1f"/><path d="M474.534,361.959l2.947.987a7.425,7.425,0,0,1-2.259,4.034,6.045,6.045,0,0,1-4,1.317,6.237,6.237,0,0,1-4.939-2.24,9.06,9.06,0,0,1-1.933-6.122,9.532,9.532,0,0,1,1.943-6.38,6.4,6.4,0,0,1,5.112-2.273,5.972,5.972,0,0,1,4.494,1.788,6.665,6.665,0,0,1,1.543,3.034l-3.01.781a3.562,3.562,0,0,0-1.115-2.017,3.035,3.035,0,0,0-2.062-.739,3.309,3.309,0,0,0-2.723,1.313,6.828,6.828,0,0,0-1.045,4.248,7.363,7.363,0,0,0,1.028,4.436,3.234,3.234,0,0,0,2.677,1.324,2.9,2.9,0,0,0,2.091-.842A5.038,5.038,0,0,0,474.534,361.959Z" transform="translate(-279.328 -351.281)" fill="#221f1f" fill-rule="evenodd"/><path d="M495.907,368.067H492.62l-1.3-3.742h-6.044l-1.253,3.742h-3.227l5.851-16.44h3.224l6.038,16.44Zm-5.578-6.521-2.094-6.084-2.035,6.084Z" transform="translate(-281.565 -351.328)" fill="#221f1f" fill-rule="evenodd"/></g></g></svg>