<svg xmlns="http://www.w3.org/2000/svg" width="20" height="16.246" viewBox="0 0 20 16.246"><path d="M20,59.363a8.193,8.193,0,0,1-2.356.646,4.12,4.12,0,0,0,1.8-2.268,8.271,8.271,0,0,1-2.607,1A4.106,4.106,0,0,0,9.85,62.478a11.648,11.648,0,0,1-8.456-4.287,4.108,4.108,0,0,0,1.27,5.476,4.1,4.1,0,0,1-1.858-.515V63.2A4.107,4.107,0,0,0,4.1,67.227a4.156,4.156,0,0,1-1.081.144,3.938,3.938,0,0,1-.772-.076,4.1,4.1,0,0,0,3.832,2.849A8.232,8.232,0,0,1,.98,71.9,8.72,8.72,0,0,1,0,71.841,11.6,11.6,0,0,0,6.29,73.687,11.592,11.592,0,0,0,17.963,62.014l-.014-.531A8.193,8.193,0,0,0,20,59.363Z" transform="translate(-0.001 -57.441)" fill="#707070"/></svg>