<svg xmlns="http://www.w3.org/2000/svg" width="37.226" height="24.484" viewBox="0 0 37.226 24.484"><g transform="translate(0 0)"><path d="M33.622,31.874l1.914-2.412,1.708,2.165,3.65,4.613h-3.65v2.642a3.989,3.989,0,0,1-3.981,3.982H7.648a3.989,3.989,0,0,1-3.981-3.982V22.362A3.989,3.989,0,0,1,7.648,18.38H33.262a3.989,3.989,0,0,1,3.981,3.982V24.51H33.622V22.362a.362.362,0,0,0-.36-.364H7.648a.371.371,0,0,0-.364.364V38.883a.364.364,0,0,0,.364.36H33.262a.356.356,0,0,0,.36-.36V36.241H30.17Z" transform="translate(-3.667 -18.38)" fill="#cbcbcb"/></g><path d="M31.307,39.872l5.31,7.637H26l.022-.027H14.747l8.992-12.163L29.275,42.8Z" transform="translate(-10.42 -28.705)" fill="#cbcbcb"/><path d="M61.891,34.795a1.974,1.974,0,1,1-1.974,1.974A1.974,1.974,0,0,1,61.891,34.795Z" transform="translate(-37.952 -28.385)" fill="#cbcbcb"/></svg>