<svg xmlns="http://www.w3.org/2000/svg" width="23.275" height="27.534" viewBox="0 0 23.275 27.534"><g transform="translate(-1351 -542.927)"><g transform="translate(1351 542.927)"><path d="M215.334,331.76c-.144-.12-4.382,3.818-8.925,9.248-.495.591-.972,1.177-1.43,1.75a2.206,2.206,0,0,1,1.352,1.143q.729-.832,1.477-1.724c4.543-5.431,7.671-10.3,7.527-10.418Zm-19.7,23.363a49.906,49.906,0,0,0,6.718-6.912q.559-.663,1.078-1.309a1.654,1.654,0,0,1-1.011-.861q-.549.621-1.112,1.289a49.923,49.923,0,0,0-5.673,7.793Z" transform="translate(-195.627 -327.591)" fill="#131c26" fill-rule="evenodd"/><path d="M246.42,322.842a.322.322,0,1,1-.292.349.321.321,0,0,1,.292-.349Zm-.045,1.865a4.174,4.174,0,0,0,1.811-3.621A4.159,4.159,0,0,0,245.1,323.2c-.039.072-.077.144-.112.218a.522.522,0,0,1,.313.13,1.024,1.024,0,0,0-.239-.036,1.9,1.9,0,0,0-.3.014,1.417,1.417,0,0,0-1.087.844,1.418,1.418,0,0,1,2.082,1.742,1.435,1.435,0,0,0,.308-.275A1.416,1.416,0,0,0,246.375,324.707Z" transform="translate(-224.916 -321.086)" fill="#131c26" fill-rule="evenodd"/></g><g transform="translate(1353.041 558.735)"><path d="M202.324,364.516a1.468,1.468,0,1,0-1.468-1.468A1.471,1.471,0,0,0,202.324,364.516Z" transform="translate(-200.856 -361.58)" fill="#131c26" fill-rule="evenodd"/><path d="M215.691,364.516a1.468,1.468,0,1,0-1.468-1.468A1.471,1.471,0,0,0,215.691,364.516Z" transform="translate(-209.005 -361.58)" fill="#131c26" fill-rule="evenodd"/><path d="M228.457,364.516a1.468,1.468,0,1,0-1.468-1.468A1.471,1.471,0,0,0,228.457,364.516Z" transform="translate(-216.787 -361.58)" fill="#131c26" fill-rule="evenodd"/></g></g></svg>